<svg width="258" height="162" viewBox="0 0 258 162" fill="none" xmlns="http://www.w3.org/2000/svg">
<path d="M0.994019 159.637C0.517649 159.917 0.35801 160.53 0.637455 161.006C0.916901 161.482 1.52961 161.642 2.00598 161.363L0.994019 159.637ZM257.97 3.74146C258.104 3.20551 257.777 2.66294 257.241 2.52958L248.508 0.356412C247.972 0.223055 247.429 0.549416 247.296 1.08536C247.163 1.6213 247.489 2.16387 248.025 2.29723L255.788 4.22894L253.856 11.9922C253.723 12.5282 254.049 13.0707 254.585 13.2041C255.121 13.3374 255.664 13.0111 255.797 12.4751L257.97 3.74146ZM2.44211 161.107C2.91845 160.827 3.07804 160.214 2.79856 159.738C2.51907 159.262 1.90635 159.102 1.43 159.382L2.44211 161.107ZM6.62214 156.332C6.14607 156.612 5.98709 157.225 6.26704 157.701C6.547 158.177 7.15988 158.336 7.63595 158.056L6.62214 156.332ZM8.49451 157.551C8.97054 157.271 9.12942 156.658 8.84939 156.182C8.56935 155.706 7.95645 155.547 7.48042 155.827L8.49451 157.551ZM12.5881 152.819C12.1124 153.099 11.9541 153.713 12.2346 154.188C12.5151 154.664 13.1282 154.822 13.6039 154.542L12.5881 152.819ZM14.4709 154.03C14.9466 153.75 15.1048 153.137 14.8242 152.661C14.5436 152.185 13.9306 152.027 13.4549 152.308L14.4709 154.03ZM18.6342 149.249C18.1588 149.53 18.0013 150.144 18.2823 150.619C18.5634 151.094 19.1767 151.252 19.6521 150.971L18.6342 149.249ZM20.5083 150.465C20.9837 150.183 21.1411 149.57 20.86 149.095C20.5788 148.619 19.9656 148.462 19.4902 148.743L20.5083 150.465ZM24.5992 145.718C24.1241 146 23.9673 146.613 24.2489 147.088C24.5306 147.563 25.144 147.72 25.6191 147.438L24.5992 145.718ZM26.487 146.924C26.9621 146.642 27.1188 146.028 26.8371 145.553C26.5553 145.078 25.9419 144.922 25.4668 145.203L26.487 146.924ZM30.6279 142.139C30.1531 142.421 29.9971 143.035 30.2793 143.51C30.5615 143.984 31.1751 144.14 31.6499 143.858L30.6279 142.139ZM32.5029 143.351C32.9776 143.069 33.1335 142.455 32.8512 141.98C32.5689 141.506 31.9553 141.35 31.4806 141.632L32.5029 143.351ZM36.5992 138.584C36.1249 138.867 35.9696 139.481 36.2524 139.955C36.5352 140.43 37.149 140.585 37.6234 140.302L36.5992 138.584ZM38.4875 139.787C38.9618 139.504 39.117 138.89 38.8341 138.416C38.5512 137.941 37.9374 137.786 37.463 138.069L38.4875 139.787ZM42.6 135.002C42.126 135.285 41.9715 135.899 42.2549 136.373C42.5383 136.847 43.1523 137.002 43.6263 136.718L42.6 135.002ZM44.4752 136.211C44.9492 135.927 45.1036 135.313 44.8201 134.839C44.5366 134.365 43.9226 134.211 43.4486 134.494L44.4752 136.211ZM48.5805 131.421C48.1068 131.705 47.9531 132.319 48.2371 132.793C48.5211 133.267 49.1353 133.42 49.609 133.136L48.5805 131.421ZM50.4682 132.621C50.9419 132.337 51.0955 131.723 50.8114 131.249C50.5273 130.776 49.9131 130.622 49.4395 130.906L50.4682 132.621ZM54.5467 127.839C54.0734 128.123 53.9205 128.738 54.2051 129.211C54.4897 129.684 55.1041 129.837 55.5774 129.553L54.5467 127.839ZM56.4212 129.045C56.8945 128.761 57.0473 128.146 56.7626 127.673C56.4779 127.2 55.8635 127.047 55.3902 127.331L56.4212 129.045ZM60.538 124.231C60.0651 124.516 59.9129 125.131 60.1982 125.604C60.4834 126.076 61.098 126.229 61.5709 125.943L60.538 124.231ZM62.4244 125.429C62.8973 125.143 63.0494 124.529 62.764 124.056C62.4787 123.583 61.8641 123.431 61.3912 123.716L62.4244 125.429ZM66.4764 120.644C66.0038 120.93 65.8525 121.545 66.1383 122.017C66.4241 122.49 67.0389 122.641 67.5115 122.355L66.4764 120.644ZM68.3745 121.833C68.847 121.547 68.9982 120.933 68.7123 120.46C68.4264 119.988 67.8116 119.836 67.339 120.122L68.3745 121.833ZM72.4661 117.016C71.9939 117.302 71.8434 117.917 72.1298 118.39C72.4163 118.862 73.0313 119.012 73.5035 118.726L72.4661 117.016ZM74.3503 118.212C74.8224 117.925 74.9729 117.31 74.6863 116.838C74.3998 116.366 73.7847 116.216 73.3126 116.502L74.3503 118.212ZM78.4215 113.398C77.9497 113.685 77.7999 114.3 78.087 114.772C78.3741 115.244 78.9893 115.393 79.4611 115.106L78.4215 113.398ZM80.3166 114.586C80.7883 114.298 80.938 113.683 80.6508 113.211C80.3636 112.74 79.7484 112.59 79.2766 112.877L80.3166 114.586ZM84.3585 109.78C83.8871 110.068 83.7381 110.683 84.0258 111.154C84.3135 111.626 84.9289 111.775 85.4004 111.487L84.3585 109.78ZM86.2416 110.974C86.713 110.686 86.8619 110.07 86.5741 109.599C86.2863 109.128 85.6709 108.979 85.1995 109.267L86.2416 110.974ZM90.3301 106.13C89.859 106.419 89.7109 107.034 89.9992 107.505C90.2875 107.976 90.9031 108.124 91.3742 107.836L90.3301 106.13ZM92.2213 107.317C92.6923 107.029 92.8403 106.413 92.5519 105.942C92.2635 105.471 91.6479 105.323 91.1769 105.612L92.2213 107.317ZM96.2649 102.492C95.7942 102.781 95.6469 103.397 95.9358 103.868C96.2247 104.338 96.8405 104.486 97.3112 104.197L96.2649 102.492ZM98.1658 103.672C98.6365 103.383 98.7837 102.767 98.4947 102.297C98.2056 101.826 97.5898 101.679 97.1192 101.968L98.1658 103.672ZM102.195 98.8467C101.725 99.1362 101.578 99.7522 101.868 100.222C102.157 100.693 102.773 100.839 103.244 100.55L102.195 98.8467ZM104.082 100.034C104.552 99.7441 104.698 99.1281 104.409 98.6579C104.119 98.1876 103.503 98.0412 103.033 98.3308L104.082 100.034ZM108.148 95.1765C107.678 95.4667 107.532 96.0828 107.822 96.5528C108.112 97.0227 108.729 97.1685 109.199 96.8783L108.148 95.1765ZM110.043 96.3566C110.513 96.0664 110.659 95.4502 110.369 94.9803C110.078 94.5105 109.462 94.3648 108.992 94.655L110.043 96.3566ZM114.073 91.5133C113.603 91.804 113.458 92.4204 113.749 92.8899C114.04 93.3595 114.656 93.5045 115.126 93.2138L114.073 91.5133ZM115.977 92.6867C116.446 92.3959 116.591 91.7795 116.3 91.31C116.009 90.8405 115.393 90.6956 114.924 90.9864L115.977 92.6867ZM119.978 87.8521C119.509 88.1434 119.365 88.7599 119.656 89.2292C119.947 89.6984 120.564 89.8426 121.033 89.5513L119.978 87.8521ZM121.887 89.0211C122.356 88.7297 122.5 88.1132 122.209 87.644C121.917 87.1749 121.301 87.0307 120.832 87.3221L121.887 89.0211ZM125.921 84.1581C125.452 84.45 125.308 85.0667 125.6 85.5356C125.892 86.0044 126.509 86.1479 126.977 85.8561L125.921 84.1581ZM127.818 85.3331C128.286 85.0412 128.43 84.4245 128.138 83.9557C127.846 83.4868 127.229 83.3434 126.76 83.6353L127.818 85.3331ZM131.842 80.4679C131.373 80.7603 131.231 81.3771 131.523 81.8456C131.815 82.3142 132.432 82.457 132.901 82.1647L131.842 80.4679ZM133.746 81.6372C134.214 81.3447 134.357 80.7279 134.065 80.2594C133.772 79.7909 133.155 79.6481 132.687 79.9406L133.746 81.6372ZM137.747 76.7792C137.278 77.072 137.136 77.689 137.429 78.1573C137.722 78.6255 138.339 78.7677 138.807 78.4748L137.747 76.7792ZM139.657 77.9433C140.125 77.6503 140.267 77.0333 139.974 76.5651C139.681 76.0969 139.064 75.9548 138.596 76.2477L139.657 77.9433ZM143.644 73.0866C143.176 73.3799 143.035 73.997 143.328 74.465C143.621 74.9329 144.238 75.0745 144.706 74.7812L143.644 73.0866ZM145.555 74.2495C146.023 73.9561 146.164 73.339 145.871 72.871C145.577 72.4031 144.96 72.2616 144.492 72.555L145.555 74.2495ZM149.565 69.3718C149.097 69.6656 148.956 70.2828 149.25 70.7505C149.544 71.2182 150.161 71.3593 150.629 71.0656L149.565 69.3718ZM151.466 70.5394C151.934 70.2457 152.075 69.6284 151.781 69.1607C151.488 68.6931 150.87 68.5521 150.403 68.8459L151.466 70.5394ZM155.473 65.6582C155.006 65.9523 154.865 66.5696 155.159 67.0371C155.454 67.5046 156.071 67.6452 156.538 67.3511L155.473 65.6582ZM157.38 66.8218C157.847 66.5277 157.988 65.9103 157.693 65.4429C157.399 64.9754 156.782 64.8349 156.315 65.129L157.38 66.8218ZM161.372 61.9446C160.905 62.239 160.765 62.8565 161.059 63.3238C161.354 63.791 161.971 63.9312 162.438 63.6368L161.372 61.9446ZM163.283 63.1048C163.75 62.8104 163.89 62.1929 163.596 61.7257C163.301 61.2584 162.684 61.1183 162.217 61.4127L163.283 63.1048ZM167.265 58.2304C166.798 58.525 166.658 59.1425 166.953 59.6096C167.247 60.0768 167.865 60.2167 168.332 59.9221L167.265 58.2304ZM169.179 59.3878C169.646 59.0931 169.786 58.4756 169.491 58.0085C169.197 57.5414 168.579 57.4015 168.112 57.6962L169.179 59.3878ZM173.154 54.5151C172.687 54.8098 172.547 55.4274 172.842 55.8944C173.137 56.3615 173.754 56.5012 174.221 56.2064L173.154 54.5151ZM175.071 55.6703C175.538 55.3756 175.677 54.758 175.383 54.291C175.088 53.8239 174.47 53.6843 174.003 53.979L175.071 55.6703ZM179.057 50.7889C178.59 51.0837 178.45 51.7013 178.745 52.1683C179.04 52.6353 179.658 52.7749 180.125 52.4801L179.057 50.7889ZM180.96 51.9525C181.427 51.6577 181.567 51.0401 181.272 50.5731C180.977 50.1061 180.359 49.9665 179.892 50.2614L180.96 51.9525ZM184.959 47.063C184.492 47.3578 184.352 47.9754 184.647 48.4424C184.942 48.9094 185.559 49.049 186.026 48.7542L184.959 47.063ZM186.864 48.2253C187.331 47.9305 187.471 47.3129 187.176 46.8459C186.881 46.3789 186.264 46.2393 185.797 46.534L186.864 48.2253ZM190.858 43.3397C190.391 43.6344 190.251 44.252 190.546 44.7191C190.841 45.1862 191.458 45.3259 191.925 45.0312L190.858 43.3397ZM192.765 44.5014C193.232 44.2067 193.372 43.5892 193.078 43.1221C192.783 42.6549 192.165 42.5151 191.698 42.8098L192.765 44.5014ZM196.758 39.6199C196.29 39.9143 196.15 40.5318 196.445 40.999C196.739 41.4663 197.357 41.6064 197.824 41.3119L196.758 39.6199ZM198.666 40.7815C199.133 40.4871 199.273 39.8697 198.979 39.4024C198.684 38.9351 198.067 38.795 197.6 39.0894L198.666 40.7815ZM202.658 35.9043C202.191 36.1983 202.05 36.8157 202.345 37.2832C202.639 37.7507 203.256 37.8912 203.723 37.5971L202.658 35.9043ZM204.567 37.0667C205.034 36.7727 205.175 36.1553 204.881 35.6878C204.587 35.2203 203.969 35.0797 203.502 35.3737L204.567 37.0667ZM208.562 32.1941C208.095 32.4877 207.953 33.105 208.247 33.5727C208.541 34.0405 209.158 34.1817 209.626 33.8881L208.562 32.1941ZM210.47 33.3581C210.938 33.0645 211.079 32.4473 210.786 31.9795C210.492 31.5117 209.875 31.3704 209.407 31.6639L210.47 33.3581ZM214.471 28.4909C214.003 28.7838 213.861 29.4009 214.154 29.869C214.447 30.3372 215.064 30.4792 215.532 30.1862L214.471 28.4909ZM216.378 29.6571C216.846 29.3642 216.988 28.7472 216.695 28.2789C216.402 27.8107 215.785 27.6686 215.317 27.9615L216.378 29.6571ZM220.385 24.796C219.917 25.0882 219.774 25.705 220.066 26.1737C220.358 26.6423 220.975 26.7853 221.444 26.4931L220.385 24.796ZM222.29 25.9652C222.759 25.6731 222.902 25.0563 222.61 24.5876C222.318 24.1189 221.701 23.9757 221.232 24.2678L222.29 25.9652ZM226.307 21.1112C225.837 21.4026 225.693 22.0191 225.985 22.4883C226.276 22.9575 226.892 23.1017 227.362 22.8103L226.307 21.1112ZM228.209 22.2841C228.679 21.9929 228.823 21.3764 228.532 20.9072C228.241 20.4379 227.624 20.2935 227.155 20.5847L228.209 22.2841ZM232.236 17.4383C231.766 17.7286 231.621 18.3448 231.911 18.8146C232.201 19.2845 232.818 19.43 233.288 19.1397L232.236 17.4383ZM234.136 18.6156C234.606 18.3254 234.752 17.7093 234.462 17.2393C234.172 16.7694 233.556 16.6236 233.086 16.9138L234.136 18.6156ZM238.175 13.779C237.705 14.0681 237.558 14.6839 237.847 15.1545C238.136 15.625 238.752 15.7721 239.222 15.483L238.175 13.779ZM240.072 14.9613C240.542 14.6723 240.69 14.0565 240.401 13.5859C240.112 13.1152 239.496 12.9679 239.025 13.2568L240.072 14.9613ZM244.125 10.135C243.653 10.4228 243.504 11.0382 243.792 11.5096C244.08 11.9809 244.695 12.1297 245.167 11.842L244.125 10.135ZM246.017 11.3229C246.489 11.0353 246.638 10.42 246.35 9.94848C246.063 9.47699 245.447 9.32791 244.976 9.61551L246.017 11.3229ZM250.085 6.50801C249.613 6.79436 249.462 7.40933 249.749 7.88158C250.035 8.35383 250.65 8.50453 251.122 8.21818L250.085 6.50801ZM251.974 7.70221C252.446 7.41607 252.597 6.80117 252.311 6.32879C252.025 5.85641 251.41 5.70543 250.937 5.99156L251.974 7.70221ZM256.057 2.90014C255.584 3.18493 255.431 3.7994 255.716 4.27259C256.001 4.74579 256.615 4.89852 257.089 4.61374L256.057 2.90014ZM2.00598 161.363C2.15144 161.277 2.29682 161.192 2.44211 161.107L1.43 159.382C1.28476 159.467 1.13943 159.552 0.994019 159.637L2.00598 161.363ZM7.63595 158.056C7.92247 157.887 8.20866 157.719 8.49451 157.551L7.48042 155.827C7.19466 155.995 6.90857 156.163 6.62214 156.332L7.63595 158.056ZM13.6039 154.542C13.8933 154.371 14.1823 154.201 14.4709 154.03L13.4549 152.308C13.1663 152.478 12.8774 152.648 12.5881 152.819L13.6039 154.542ZM19.6521 150.971C19.9378 150.802 20.2232 150.633 20.5083 150.465L19.4902 148.743C19.2052 148.912 18.9199 149.08 18.6342 149.249L19.6521 150.971ZM25.6191 147.438C25.9088 147.267 26.1981 147.095 26.487 146.924L25.4668 145.203C25.178 145.375 24.8888 145.546 24.5992 145.718L25.6191 147.438ZM31.6499 143.858C31.9346 143.689 32.2189 143.52 32.5029 143.351L31.4806 141.632C31.1967 141.801 30.9125 141.97 30.6279 142.139L31.6499 143.858ZM37.6234 140.302C37.9118 140.13 38.1998 139.958 38.4875 139.787L37.463 138.069C37.1755 138.241 36.8875 138.412 36.5992 138.584L37.6234 140.302ZM43.6263 136.718C43.9096 136.549 44.1926 136.38 44.4752 136.211L43.4486 134.494C43.1661 134.663 42.8832 134.832 42.6 135.002L43.6263 136.718ZM49.609 133.136C49.8958 132.964 50.1822 132.793 50.4682 132.621L49.4395 130.906C49.1535 131.078 48.8672 131.249 48.5805 131.421L49.609 133.136ZM55.5774 129.553C55.859 129.383 56.1403 129.214 56.4212 129.045L55.3902 127.331C55.1094 127.5 54.8283 127.669 54.5467 127.839L55.5774 129.553ZM61.5709 125.943C61.8558 125.772 62.1403 125.6 62.4244 125.429L61.3912 123.716C61.1072 123.887 60.8228 124.059 60.538 124.231L61.5709 125.943ZM67.5115 122.355C67.7995 122.181 68.0872 122.007 68.3745 121.833L67.339 120.122C67.0519 120.296 66.7643 120.47 66.4764 120.644L67.5115 122.355ZM73.5035 118.726C73.7861 118.554 74.0684 118.383 74.3503 118.212L73.3126 116.502C73.0308 116.673 72.7487 116.844 72.4661 117.016L73.5035 118.726ZM79.4611 115.106C79.7466 114.932 80.0318 114.759 80.3166 114.586L79.2766 112.877C78.992 113.05 78.7069 113.224 78.4215 113.398L79.4611 115.106ZM85.4004 111.487C85.6812 111.316 85.9616 111.144 86.2416 110.974L85.1995 109.267C84.9195 109.437 84.6392 109.609 84.3585 109.78L85.4004 111.487ZM91.3742 107.836C91.6569 107.663 91.9393 107.49 92.2213 107.317L91.1769 105.612C90.895 105.784 90.6127 105.957 90.3301 106.13L91.3742 107.836ZM97.3112 104.197C97.5965 104.022 97.8814 103.847 98.1658 103.672L97.1192 101.968C96.8348 102.142 96.55 102.317 96.2649 102.492L97.3112 104.197ZM103.244 100.55C103.523 100.378 103.803 100.206 104.082 100.034L103.033 98.3308C102.754 98.5026 102.475 98.6745 102.195 98.8467L103.244 100.55ZM109.199 96.8783C109.481 96.7042 109.762 96.5303 110.043 96.3566L108.992 94.655C108.711 94.8287 108.43 95.0025 108.148 95.1765L109.199 96.8783ZM115.126 93.2138C115.41 93.0379 115.693 92.8622 115.977 92.6867L114.924 90.9864C114.64 91.1618 114.357 91.3375 114.073 91.5133L115.126 93.2138ZM121.033 89.5513C121.318 89.3744 121.603 89.1976 121.887 89.0211L120.832 87.3221C120.548 87.4986 120.263 87.6752 119.978 87.8521L121.033 89.5513ZM126.977 85.8561C127.258 85.6816 127.538 85.5072 127.818 85.3331L126.76 83.6353C126.481 83.8094 126.201 83.9837 125.921 84.1581L126.977 85.8561ZM132.901 82.1647C133.183 81.9886 133.465 81.8128 133.746 81.6372L132.687 79.9406C132.406 80.1161 132.124 80.2919 131.842 80.4679L132.901 82.1647ZM138.807 78.4748C139.091 78.2974 139.374 78.1202 139.657 77.9433L138.596 76.2477C138.313 76.4247 138.03 76.6018 137.747 76.7792L138.807 78.4748ZM144.706 74.7812C144.99 74.6037 145.272 74.4265 145.555 74.2495L144.492 72.555C144.21 72.7319 143.927 72.9091 143.644 73.0866L144.706 74.7812ZM150.629 71.0656C150.908 70.89 151.188 70.7146 151.466 70.5394L150.403 68.8459C150.124 69.021 149.845 69.1963 149.565 69.3718L150.629 71.0656ZM156.538 67.3511C156.819 67.1745 157.1 66.998 157.38 66.8218L156.315 65.129C156.035 65.3052 155.754 65.4816 155.473 65.6582L156.538 67.3511ZM162.438 63.6368C162.72 63.4593 163.002 63.282 163.283 63.1048L162.217 61.4127C161.936 61.5898 161.654 61.7671 161.372 61.9446L162.438 63.6368ZM168.332 59.9221C168.615 59.7438 168.897 59.5657 169.179 59.3878L168.112 57.6962C167.83 57.874 167.548 58.0521 167.265 58.2304L168.332 59.9221ZM174.221 56.2064C174.505 56.0275 174.788 55.8488 175.071 55.6703L174.003 53.979C173.72 54.1575 173.437 54.3362 173.154 54.5151L174.221 56.2064ZM180.125 52.4801C180.403 52.304 180.682 52.1282 180.96 51.9525L179.892 50.2614C179.614 50.437 179.336 50.6129 179.057 50.7889L180.125 52.4801ZM186.026 48.7542C186.306 48.5777 186.585 48.4014 186.864 48.2253L185.797 46.534C185.518 46.7102 185.238 46.8865 184.959 47.063L186.026 48.7542ZM191.925 45.0312C192.206 44.8544 192.486 44.6778 192.765 44.5014L191.698 42.8098C191.419 42.9863 191.139 43.1629 190.858 43.3397L191.925 45.0312ZM197.824 41.3119C198.105 41.1349 198.385 40.9581 198.666 40.7815L197.6 39.0894C197.319 39.266 197.039 39.4428 196.758 39.6199L197.824 41.3119ZM203.723 37.5971C204.005 37.4201 204.286 37.2433 204.567 37.0667L203.502 35.3737C203.221 35.5504 202.94 35.7272 202.658 35.9043L203.723 37.5971ZM209.626 33.8881C209.907 33.7113 210.189 33.5346 210.47 33.3581L209.407 31.6639C209.126 31.8405 208.844 32.0172 208.562 32.1941L209.626 33.8881ZM215.532 30.1862C215.814 30.0097 216.096 29.8333 216.378 29.6571L215.317 27.9615C215.035 28.1378 214.753 28.3142 214.471 28.4909L215.532 30.1862ZM221.444 26.4931C221.726 26.317 222.008 26.141 222.29 25.9652L221.232 24.2678C220.95 24.4438 220.668 24.6198 220.385 24.796L221.444 26.4931ZM227.362 22.8103C227.644 22.6348 227.927 22.4594 228.209 22.2841L227.155 20.5847C226.872 20.7601 226.59 20.9356 226.307 21.1112L227.362 22.8103ZM233.288 19.1397C233.571 18.9649 233.853 18.7902 234.136 18.6156L233.086 16.9138C232.803 17.0885 232.519 17.2633 232.236 17.4383L233.288 19.1397ZM239.222 15.483C239.505 15.309 239.789 15.1351 240.072 14.9613L239.025 13.2568C238.742 13.4308 238.459 13.6048 238.175 13.779L239.222 15.483ZM245.167 11.842C245.45 11.6689 245.734 11.4959 246.017 11.3229L244.976 9.61551C244.692 9.78858 244.408 9.96174 244.125 10.135L245.167 11.842ZM251.122 8.21818C251.406 8.04612 251.69 7.87414 251.974 7.70221L250.937 5.99156C250.653 6.16365 250.369 6.3358 250.085 6.50801L251.122 8.21818ZM257.089 4.61374C257.231 4.52812 257.373 4.44251 257.515 4.35692L256.485 2.64307C256.342 2.72875 256.2 2.81444 256.057 2.90014L257.089 4.61374Z" fill="#3E2985"/>
</svg>
