<svg width="40" height="40" viewBox="0 0 40 40" fill="none" xmlns="http://www.w3.org/2000/svg">
<rect x="2" y="2" width="36" height="36" rx="18" fill="#FF5913"/>
<path d="M21.7034 18.6813H32V20.6593C32 27.7143 27.0539 32 20.5477 32C13.2448 32 8 26.6593 8 20.033C8 13.3407 13.3444 8 20.1826 8C22.5366 8 24.6954 8.60939 26.4966 9.6425L24.0183 14.1486C22.9773 13.5317 21.6504 13.1429 20.1494 13.1429C16.2324 13.1429 13.3112 16.011 13.3112 20.0659C13.3112 23.989 16.0996 26.8571 20.6141 26.8571C23.7012 26.8571 25.7261 25.5055 26.556 23.2967H18.9936L21.7034 18.6813Z" fill="white"/>
<rect x="2" y="2" width="36" height="36" rx="18" stroke="#382F6C" stroke-width="4"/>
</svg>
